<?xml version="1.0" encoding="utf-8"?>
<svg version="1.1" id="Capa_1" x="0px" y="0px" width="326.05px" height="326.05px" viewBox="0 0 326.05 326.05" style="enable-background:new 0 0 326.05 326.05;" xmlns="http://www.w3.org/2000/svg">
  <g/>
  <g/>
  <g/>
  <g/>
  <g/>
  <g/>
  <g/>
  <g/>
  <g/>
  <g/>
  <g/>
  <g/>
  <g/>
  <g/>
  <g/>
  <g transform="matrix(1, 0, 0, 1, -83.958694, 59.344296)">
    <path style="stroke: rgb(0, 0, 0); fill: rgb(83, 70, 69);" d="M 280.365 13.238 C 280.365 13.238 248.593 -24.523 181.925 13.759 C 115.257 52.041 117.34 122.616 117.861 118.449 C 118.382 114.282 114.736 128.085 125.153 148.138 C 135.57 168.191 156.403 172.878 156.403 172.878 C 156.403 172.878 210.572 195.795 271.511 123.658 C 302.068 87.486 305.019 50.679 280.365 13.238 Z"/>
    <path style="stroke: rgb(0, 0, 0); fill: rgb(253, 248, 235);" d="M 138.252 164.003 C 138.252 164.003 135.217 98.927 202.991 81.393 C 216.211 77.973 226.955 73.103 235.686 67.479 C 244.724 61.657 251.605 55.027 256.842 48.361 C 272.481 28.455 273.462 8.225 273.462 8.225"/>
  </g>
</svg>