<?xml version="1.0" encoding="utf-8"?>
<svg version="1.1" id="Capa_1" x="0px" y="0px" width="326.05px" height="326.05px" viewBox="0 0 326.05 326.05" style="enable-background:new 0 0 326.05 326.05;" xmlns="http://www.w3.org/2000/svg">
  <g/>
  <g/>
  <g/>
  <g/>
  <g/>
  <g/>
  <g/>
  <g/>
  <g/>
  <g/>
  <g/>
  <g/>
  <g/>
  <g/>
  <g/>
  <g transform="matrix(1, 0, 0, 1, -83.958694, 59.344296)">
    <path style="stroke: rgb(0, 0, 0); fill: rgb(147, 120, 118);" d="M 280.365 13.575 C 280.365 13.575 248.593 -24.186 181.925 14.096 C 115.257 52.378 117.34 122.953 117.861 118.786 C 118.382 114.619 114.736 128.422 125.153 148.475 C 135.57 168.528 156.403 173.215 156.403 173.215 C 156.403 173.215 210.572 196.132 271.511 123.995 C 302.068 87.823 305.019 51.016 280.365 13.575 Z"/>
    <path style="stroke: rgb(0, 0, 0); fill: rgb(253, 248, 235);" d="M 138.252 164.003 C 138.252 164.003 135.217 98.927 202.991 81.393 C 216.211 77.973 226.955 73.103 235.686 67.479 C 244.724 61.657 251.605 55.027 256.842 48.361 C 272.481 28.455 273.462 8.225 273.462 8.225"/>
  </g>
</svg>